<?xml version="1.0" encoding="utf-8"?>
<svg viewBox="3.863288164138794 178.78781127929688 285.1001281738281 292.1999816894531" width="285.1001281738281" height="292.1999816894531" xmlns="http://www.w3.org/2000/svg"><g transform="matrix(1, 0, 0, 1, -1018.5365600585938, 80.48780822753906)"><g transform="matrix(1, 0, 0, 1, 0, 0)">
	<g>
		<path class="st85" d="M1298.5,324.8c0-44.5-2.7-72.8-3.6-83.1l-74.6-10.2l-166.2-18.6l-25.6-3.5c-1.7,8.8-0.2,39.6,1.2,68.2&#10;&#9;&#9;&#9;c1.5,29.5,2.6,56.4,5.3,59.1c5.7,5.7,20.6,11.1,20.6,11.1s230.9,41.6,241.3,41.6S1298.5,371.4,1298.5,324.8z" style="fill: rgb(226, 217, 214);"/>
	</g>
	<path class="st86" d="M1027.8,215.3c0,0-1.8,11.6,2.8,13.8c4.6,2.2,20.2,2.6,25.4,2.4s17.5,1,28.3,5.2c10.8,4.2,32.9,6.6,42.7,6.9&#10;&#9;&#9;s54.1,3.6,63.9,8.1c9.9,4.5,20.5,4.1,33.7,3.6s31-0.3,40.2,2.4c9.2,2.7,28.6,0.5,30-1c1.4-1.5-0.6-12.7-0.6-12.7l-48.7-18.5&#10;&#9;&#9;l-45.5-4.8l-82-4.4l-61.9-5.5" style="opacity: 0.52; fill: rgb(215, 206, 203);"/>
	<path class="st87" d="M1027.4,272.3c1.5-4.5,7.6-6.6,11.6-4c0.8-1.4,3-1.5,3.9-0.3c2.4-0.2,4.8-0.4,7.3-0.6&#10;&#9;&#9;c1.2-0.1,2.9,0.4,2.6,1.5c1.6-0.5,3.2-0.9,4.8-1.4c-0.8,1.4,0.7,3.2,2.4,3.4c1.6,0.2,3.2-0.6,4.7-1c3-0.8,6.4-0.3,9,1.3&#10;&#9;&#9;c1.5-1.4,4.3-0.9,5.3,0.9c2-0.3,4.2,0.3,5.9,1.4c1.5-2.2,5.6-1.3,6.1,1.3c1.5-1.9,5.1-1.3,5.9,1c1-1.9,4.5-1.4,4.9,0.7&#10;&#9;&#9;c1.1-2,4.6-1.5,5.2,0.6c1.2-1.3,3.7-1,4.5,0.6c0.5-0.2,1.1-0.3,1.6-0.5c4.2,1.3,8.4,2.6,12.5,3.8c1.5-1.2,3.9-0.9,5.1,0.5&#10;&#9;&#9;c0.6-1.4,2.2-2.2,3.7-1.9c1.5,0.3,2.7,1.6,2.8,3.1c1.4-1.7,4.7-0.8,4.9,1.4c2.2-0.9,4.7-1,6.9-0.4c1.7,0.5,3.1,1.6,3.4,3.4&#10;&#9;&#9;c0.8-0.3,1.7-0.5,2.5-0.8c4.3,0.2,8.7,0.3,13,0.5c0.7-1,2-1.4,3.2-1c1.1,0.4,1.9,1.6,1.9,2.7c1.9-1.2,4.3-0.5,6.4,0.1&#10;&#9;&#9;c2.6,0.8,5.3,1.6,7.9,2.4c1.4-2.1,5.4-1.3,5.9,1.2c6.7,1.3,13.3,2.6,20,4c2.2,0.4,4.5,0.9,6.6,0.1c1.2-0.4,2.2-1.2,3.3-1.6&#10;&#9;&#9;c1.2-0.3,2.7,0,3.1,1.2c5.3,2.9,11.8,3.7,17.6,2.1c0.9,1,1.6,1.2,2.5,2.2c1.5-2.4,4.8-3.7,7.5-2.8c14.5-1,29.1-0.9,43.5,0.2&#10;&#9;&#9;c0,1.9,0,3.8,0,5.7c-60.1,6.1-120.5-4.5-180-15c-28-5-55.9-9.9-83.9-14.9" style="opacity: 0.71; fill: rgb(87, 44, 38);"/>
	<path class="st85" d="M1026.9,228.5c-0.3,1.1-0.5,2.2-0.8,3.3c1.3-0.6,2.4,1.4,2.1,2.8c-0.3,1.4-1.3,2.7-1.2,4.1&#10;&#9;&#9;c0.1,1.7,1.6,3,1.7,4.6c0.2,2.7-3.2,4.5-3.3,7.2c-0.1,2.4,1.4,4,0.7,6.6c-0.6,2.1-3.7,5.9,0.5,6.5c-0.5,2.9-1.7,6.3-0.7,9.1&#10;&#9;&#9;c0.8,2.1,1.7,2.7,1.3,5.3c-0.3,1.7,0,4.1,1.7,4.5c-0.3,2.4,0.8,4.7,1.5,7.1c1.7,5.8-4.6,9.8-1.1,15.6c-0.1-0.2-0.9,2.8-0.8,3.3&#10;&#9;&#9;c0.1,0.9,0.8,2,1,3.1c0.4,2.1-0.3,5.3,2.1,6.5c-1.8,0.1-2.5,2.5-2,4.2s1.6,3.3,1.6,5.1c0,0.9-0.2,1.7-0.2,2.6c0,2.3,3.2,6.5,5.8,5&#10;&#9;&#9;c2.6-1.4,1-8.8,0.7-11.2c-2.7-21.9-2.9-44.1-2.7-66.1c0.1-10.9,0.3-21.7,0.3-32.6c0-2.4,1.5-11.4-0.3-13.3&#10;&#9;&#9;c-2.6-2.7-7.2,1.2-8.5,3.6c-1,1.8-1.8,6.6-1.5,8.7C1024.9,224.5,1026.7,229.6,1026.9,228.5z" style="fill: rgb(226, 217, 214);"/>
	<g>
		<path class="st88" d="M1037.9,301c-1-1.6-1-3.7-1.6-5.6c-0.6-1.9-2.3-3.8-4.1-3.2c-1.1,0.3-1.8,1.4-2.3,2.5&#10;&#9;&#9;&#9;c-1.5,3.7-1.2,7.8-0.9,11.7c0.5,5.5,1,11.1,1.6,16.6c0.5,4.3,1,9.3,3.8,12.9c1.9,2.5,5,4.2,7.8,5.8c4.3,2.4,8.8,4.4,13.4,6.1&#10;&#9;&#9;&#9;c0,0,230.9,41.6,241.3,41.6c10.4,0,1.7-18.1,1.7-64.6c0-2.9,0-5.8,0-8.5l-60.7,1.3c0,0-116.9-20.1-119.8-19.8&#10;&#9;&#9;&#9;c-2.9,0.3-54.4-9.4-54.4-9.4l-33.7-4.4c1.3,26.4,2.4,49.3,4.8,52.6" style="fill: rgb(205, 149, 130);"/>
	</g>
	<path class="st89" d="M1031.5,290.5c-1.4,1.6-1.2,4.4,0.6,5.7c1.7,1.3,4.5,0.7,5.6-1.2c0.2,2.2,3.6,3.1,4.8,1.3&#10;&#9;&#9;c0.7,2.2,4.3,2.6,5.4,0.7c0.2,1.2,1.3,2.2,2.6,2.2s2.4-0.9,2.6-2.1c0.1,1.5,1.4,2.8,2.9,2.9c1.5,0.2,3-0.8,3.4-2.3&#10;&#9;&#9;c0.9,2.1,4.4,2.4,5.6,0.5c0.4,2.3,3,4,5.3,3.3c3.1,1,6.2,1.9,9.3,2.9c3.3,1.3,6.7,2.5,10,3.8c2.1,0.5,4.4,0.4,6.5-0.2&#10;&#9;&#9;c0.8,3.2,5.4,4.5,7.8,2.3c1.8,1.3,4.2,1.7,6.3,1c5.4-0.5,10.9,0.3,16,2.2c2.4,0.9,5.2,0.4,7.1-1.3c0.7,2.6,4.5,3.8,6.6,1.9&#10;&#9;&#9;c1.6,2.4,5.6,2.8,7.6,0.7c1.7,2.6,6.1,2.7,7.9,0.2c0,3.2,5,4.9,7,2.4c0.4,2.4,4.3,3.2,5.5,1c0.3,0.6,0.5,1.3,0.8,1.9&#10;&#9;&#9;c1.2,3,5.9,2.6,7.3-0.3c0.7,2.4,4.1,3.5,6.1,2.1c17.1,2.6,34.4,4.7,51.7,6.3c2.7,1.8,6.8,1.2,8.9-1.3c-0.1,1.7,1.2,3.4,2.9,3.7&#10;&#9;&#9;c1.7,0.3,3.5-0.7,4.1-2.3c1.5,2.5,5.3,3.2,7.7,1.4c10.6,2.4,21.8,1.9,32.1-1.4c2.1,1.8,5.6,1.5,7.4-0.5c1.8-2,1.6-5.5-0.4-7.4&#10;&#9;&#9;c-51.4-11.5-104.9-7.6-157-15.2c-25.6-3.7-50.8-10.1-76.1-15.5c-8.1-1.7-17-3.2-24.4,0.7" style="opacity: 0.25; fill: rgb(87, 44, 38);"/>
	<g class="st90" style="opacity: 0.38;">
		<path class="st91" d="M1297.8,373.6c-2.7-1.3-5.8,1.8-8.8,1.2c-1.7-0.4-3-2-3.1-3.7c-1.2,0.8-2.4,1.6-3.6,2.4&#10;&#9;&#9;&#9;c0.5-1.3-0.9-2.5-2.2-2.6c-1.3-0.1-2.6,0.4-4,0.5c-1.3,0.1-2.6-0.2-3.9-0.5c-2.9-0.7-5.9-1.5-8.8-2.2c-2-0.5-4-1-5.9-1.6&#10;&#9;&#9;&#9;c-4.9-1.6-8.4-0.6-13.1-1.2c-3-0.4-8.6,0.6-11.2-0.7c-2.2-1.3-5.2-1.3-7.4,0.1c-0.3-1.5-1.6-2.8-3.1-3.1c-1.5-0.2-3.2,0.6-3.9,1.9&#10;&#9;&#9;&#9;c-0.1-1.9-1.5-3.7-3.3-4.1c-1.8-0.5-3.9,0.4-4.9,2c0.4-1.4-0.6-2.9-1.9-3.3c-1.4-0.4-2.9,0.6-3.3,1.9c-1.7-2.2-5.5-2.4-7.4-0.4&#10;&#9;&#9;&#9;c-0.3-0.6-0.7-1.2-1-1.7c-2.8-0.1-5.5-0.3-8.3-0.4c-4.8-5.6-10,2-15-0.9c-1.9-1.1-2.7-3.4-4.2-5c-1.5-1.6-4.9-1.7-5.3,0.5&#10;&#9;&#9;&#9;c-2.3-2.3-6.8-1.6-8.3,1.3c0.3-0.5-10-2.6-10.9-3.3c-1.4-1.1-2.8-2.3-4.5-2.8c-1.7-0.5-3.9,0.2-4.3,1.9c-1.6-1.4-4-1.7-5.9-0.7&#10;&#9;&#9;&#9;c-0.8-1.3-2.7-1.6-4-0.8c-1.6-3.8-4.7-0.2-6.7-1c-1.7-0.7-2.2-5.6-5-1.6c0.3-1.5-0.6-2.5-1.7-3.3c-2.5-1.9-5.6-3.8-8.6-2.8&#10;&#9;&#9;&#9;c-0.4-1.2-2.1-1.5-3.2-0.9c-1.1,0.6-1.8,1.8-2.4,2.9c-1.7-1.3-3.9-1.5-6-1.6c-3.2-0.2-6.4-0.5-9.5-0.7c-1.6-2-4.9-2.4-6.9-0.7&#10;&#9;&#9;&#9;c0.2-1.8-1.8-3-3.6-3.1c-1.8,0-3.5,0.6-5.3,0.6c-3.2-0.1-3.3-0.1-6.2,1.5c-1.1,0.6-2.7,0.8-3.5-0.1c-0.6-0.7-0.6-1.7-0.6-2.6&#10;&#9;&#9;&#9;c0-0.9,0-1.9-0.6-2.6c-0.6-0.7-2-0.6-2.2,0.3c0.7-1.2,0-3-1.4-3.3c-1.4-0.3-2.8,1-2.7,2.4c-0.7-1.6-2.2-3-4-3.1&#10;&#9;&#9;&#9;c-1.8-0.1-3.6,1.5-3.3,3.2c0.4-1.3,0.7-2.8,0-4c-0.7-1.2-2.6-1.7-3.4-0.6c0-1.4-1.2-2.8-2.6-2.9c-6.8-0.6-1.4,11.1,0.8,13.1&#10;&#9;&#9;&#9;c3,2.7,7,4.1,10.8,5.4c12.6,4.1,25.4,7.3,38.4,9.7c12,2.2,24.7,2.4,36.3,5.4c13.2,3.4,27.3,4.7,40.7,6.9&#10;&#9;&#9;&#9;c13.6,2.3,27.3,4.6,40.9,6.9c27.3,4.6,54.5,9.3,81.8,13.9c3,0.5,6.2,1,9.1,0C1299.9,383.6,1302.9,375.9,1297.8,373.6z" style="fill: rgb(87, 44, 38);"/>
	</g>
	<g>
		<path class="st91" d="M1298.5,299.9c-17.2,1.2-52.6,3-71.9,0.1c-26.2-3.9-139.2-25.2-156.4-26.8c-7.9-0.7-15.8-1.5-23.8-2.3&#10;&#9;&#9;&#9;c-3.3-0.3-17.5-3.7-19,0c-0.3,0.8-0.3,1.7-0.2,2.5c0.4,4.4,1.2,16.7,5.6,18.3c3.7,1.4,9.4,0.7,13.4,1.1&#10;&#9;&#9;&#9;c12.2,1.4,24.6,3.6,36.2,7.8c16.8,6.1,107.9,20.5,170,25.1c19.5,1.5,36.2-0.8,46.8-1.1c-0.4-6.6-0.7-13.9-0.7-22.3&#10;&#9;&#9;&#9;C1298.5,301.6,1298.5,300.8,1298.5,299.9z" style="fill: rgb(87, 44, 38);"/>
	</g>
	<path class="st37" d="M1258,371.3c2.2,0.4,4.4,0.7,6.5,1C1262.3,372,1260.2,371.6,1258,371.3z" style="fill: rgb(187, 151, 100);"/>
	<path class="st37" d="M1224,365.7c1.7,0.3,3.5,0.6,5.2,0.9C1227.5,366.3,1225.8,366,1224,365.7z" style="fill: rgb(187, 151, 100);"/>
	<path class="st37" d="M1210.8,363.5c1.8,0.3,3.6,0.6,5.3,0.9C1214.4,364.1,1212.6,363.8,1210.8,363.5z" style="fill: rgb(187, 151, 100);"/>
	<path class="st37" d="M1218.8,364.8c1.8,0.3,3.5,0.6,5.2,0.9C1222.3,365.4,1220.5,365.1,1218.8,364.8z" style="fill: rgb(187, 151, 100);"/>
	<path class="st37" d="M1244.1,369c4.8,0.8,9.4,1.5,13.9,2.3C1253.6,370.6,1248.9,369.8,1244.1,369z" style="fill: rgb(187, 151, 100);"/>
	<path class="st37" d="M1239.2,368.2c1.6,0.3,3.3,0.5,4.9,0.8C1242.5,368.8,1240.9,368.5,1239.2,368.2z" style="fill: rgb(187, 151, 100);"/>
	<path class="st37" d="M1194.5,360.8c2.7,0.5,5.5,0.9,8.2,1.4C1200,361.7,1197.2,361.2,1194.5,360.8z" style="fill: rgb(187, 151, 100);"/>
	<path class="st37" d="M1033.1,329.4c-0.1-0.6-0.2-1.2-0.2-1.9C1033,328.2,1033,328.8,1033.1,329.4z" style="fill: rgb(187, 151, 100);"/>
	<path class="st37" d="M1032.6,325.4L1032.6,325.4c3,2.1,6.8,4.4,10.4,6.3C1039.5,329.8,1035.6,327.5,1032.6,325.4z" style="fill: rgb(187, 151, 100);"/>
	<path class="st37" d="M1032.9,327.5c-0.1-0.7-0.2-1.4-0.2-2.1C1032.7,326.1,1032.8,326.8,1032.9,327.5z" style="fill: rgb(187, 151, 100);"/>
	<path class="st37" d="M1169.6,356.6c2.8,0.5,5.5,0.9,8.3,1.4C1175.1,357.5,1172.4,357,1169.6,356.6z" style="fill: rgb(187, 151, 100);"/>
	<path class="st37" d="M1189,359.8c1.8,0.3,3.7,0.6,5.5,0.9C1192.6,360.5,1190.8,360.1,1189,359.8z" style="fill: rgb(187, 151, 100);"/>
	<path class="st37" d="M1229.2,366.6c1.7,0.3,3.4,0.6,5.1,0.8C1232.6,367.1,1230.9,366.8,1229.2,366.6z" style="fill: rgb(187, 151, 100);"/>
	<path class="st37" d="M1302,381.4c0,0.4,0,0.8,0,1.1C1301.9,382.2,1302,381.8,1302,381.4z" style="fill: rgb(187, 151, 100);"/>
	<path class="st91" d="M1301.8,384c-0.6,0.2-1.2,0.3-1.9,0.3c-10.5,0-244-41.6-244-41.6s-15.9-7.6-22.7-13.2&#10;&#9;&#9;c0.5,3.9,1.2,6.5,1.9,7.3c5.7,5.7,20.6,11.1,20.6,11.1s230.9,41.6,241.3,41.6c3.5,0,4.9-2.1,5.1-6.7&#10;&#9;&#9;C1301.9,383.2,1301.9,383.6,1301.8,384z" style="fill: rgb(87, 44, 38);"/>
	<path class="st37" d="M1301.9,380c0,0.4,0,0.8,0,1.2C1302,380.8,1301.9,380.4,1301.9,380z" style="fill: rgb(187, 151, 100);"/>
	<path class="st37" d="M1264.4,372.3c2.1,0.3,4.1,0.7,6.1,1C1268.6,373,1266.5,372.7,1264.4,372.3z" style="fill: rgb(187, 151, 100);"/>
	<path class="st37" d="M1301.9,379.6c0-0.5,0-1-0.1-1.6c-3.9-0.5-11.7-1.6-22.1-3.2c10.4,1.6,18.2,2.8,22.1,3.2&#10;&#9;&#9;C1301.9,378.6,1301.9,379.1,1301.9,379.6z" style="fill: rgb(187, 151, 100);"/>
	<path class="st37" d="M1274.4,373.9c1.3,0.2,2.5,0.4,3.7,0.6C1276.8,374.3,1275.6,374.1,1274.4,373.9z" style="fill: rgb(187, 151, 100);"/>
	<path class="st37" d="M1270.5,373.3c1.3,0.2,2.6,0.4,3.8,0.6C1273.1,373.7,1271.8,373.5,1270.5,373.3z" style="fill: rgb(187, 151, 100);"/>
	<path class="st37" d="M1070.2,339.6c5,0.9,10.9,1.9,17.5,3C1081.1,341.5,1075.2,340.5,1070.2,339.6z" style="fill: rgb(187, 151, 100);"/>
	<path class="st37" d="M1046.2,333.4c0.5,0.3,1,0.5,1.4,0.7C1047.1,333.9,1046.7,333.6,1046.2,333.4z" style="fill: rgb(187, 151, 100);"/>
	<path class="st37" d="M1064.7,338.7c1.3,0.2,2.6,0.5,4.1,0.7C1067.3,339.1,1066,338.9,1064.7,338.7z" style="fill: rgb(187, 151, 100);"/>
	<path d="M 1032.5999755859375 325.3999938964844 L 1032.5999755859375 325.3999938964844 L 1032.5999755859375 325.3999938964844 Z" class="st37" style="fill: rgb(187, 151, 100);"/>
	<path class="st37" d="M1089.7,343c1.4,0.2,2.7,0.5,4.1,0.7C1092.5,343.4,1091.1,343.2,1089.7,343z" style="fill: rgb(187, 151, 100);"/>
	<path class="st37" d="M1032.9,327.5C1032.9,327.5,1032.9,327.5,1032.9,327.5C1032.9,327.5,1032.9,327.5,1032.9,327.5z" style="fill: rgb(187, 151, 100);"/>
	<path class="st37" d="M1062.3,338.3c-6.1-1-9.6-1.6-9.6-1.6s-1.8-0.8-4.4-2.2c2.6,1.3,4.4,2.2,4.4,2.2S1056.2,337.2,1062.3,338.3z" style="fill: rgb(187, 151, 100);"/>
	<path d="M 1033.0999755859375 329.3999938964844 L 1033.0999755859375 329.3999938964844 L 1033.0999755859375 329.3999938964844 Z" class="st37" style="fill: rgb(187, 151, 100);"/>
	<path class="st37" d="M1062.3,338.3c0.8,0.1,1.6,0.3,2.4,0.4C1063.8,338.5,1063,338.4,1062.3,338.3z" style="fill: rgb(187, 151, 100);"/>
	<path class="st37" d="M1301.9,382.6c0,0.1,0,0.1,0,0.2C1301.9,382.7,1301.9,382.6,1301.9,382.6z" style="fill: rgb(187, 151, 100);"/>
	<path class="st37" d="M1153.2,353.8c1.8,0.3,3.6,0.6,5.5,0.9C1156.8,354.4,1155,354.1,1153.2,353.8z" style="fill: rgb(187, 151, 100);"/>
	<path class="st37" d="M1302,381.1c0,0.1,0,0.2,0,0.3C1302,381.3,1302,381.2,1302,381.1z" style="fill: rgb(187, 151, 100);"/>
	<path class="st37" d="M1147.7,352.9c1.8,0.3,3.6,0.6,5.4,0.9C1151.3,353.5,1149.5,353.2,1147.7,352.9z" style="fill: rgb(187, 151, 100);"/>
	<path class="st37" d="M1301.9,379.6c0,0.1,0,0.2,0,0.3C1301.9,379.8,1301.9,379.7,1301.9,379.6z" style="fill: rgb(187, 151, 100);"/>
	<path class="st37" d="M1142.4,352c1.8,0.3,3.6,0.6,5.4,0.9C1146,352.6,1144.2,352.3,1142.4,352z" style="fill: rgb(187, 151, 100);"/>
	<path class="st37" d="M1121.7,348.4c2.5,0.4,5,0.9,7.6,1.3C1126.7,349.3,1124.2,348.9,1121.7,348.4z" style="fill: rgb(187, 151, 100);"/>
	<path class="st37" d="M1093.9,343.7c2.1,0.4,4.3,0.7,6.5,1.1C1098.2,344.4,1096,344,1093.9,343.7z" style="fill: rgb(187, 151, 100);"/>
	<path class="st37" d="M1104.9,345.6c1.5,0.3,3.1,0.5,4.7,0.8C1108,346.1,1106.4,345.8,1104.9,345.6z" style="fill: rgb(187, 151, 100);"/>
	<path class="st37" d="M1134.5,350.6c1.7,0.3,3.5,0.6,5.3,0.9C1138,351.2,1136.2,350.9,1134.5,350.6z" style="fill: rgb(187, 151, 100);"/>
	<path class="st92" d="M1299.9,384.3c0.7,0,1.4-0.1,1.9-0.3c0-0.4,0.1-0.8,0.1-1.2c0-0.1,0-0.1,0-0.2c0-0.4,0-0.7,0-1.1&#10;&#9;&#9;c0-0.1,0-0.2,0-0.3c0-0.4,0-0.8,0-1.2c0-0.1,0-0.2,0-0.3c0-0.5,0-1-0.1-1.6c-3.9-0.5-11.7-1.6-22.1-3.2c-0.6-0.1-1.2-0.2-1.8-0.3&#10;&#9;&#9;c-1.2-0.2-2.4-0.4-3.7-0.6s-2.5-0.4-3.8-0.6c-2-0.3-4-0.6-6.1-1c-2.1-0.3-4.2-0.7-6.5-1c-4.4-0.7-9.1-1.5-13.9-2.3&#10;&#9;&#9;c-1.6-0.3-3.2-0.5-4.9-0.8c-1.6-0.3-3.3-0.5-5-0.8c-1.7-0.3-3.4-0.6-5.1-0.8c-1.7-0.3-3.4-0.6-5.2-0.9c-1.7-0.3-3.5-0.6-5.2-0.9&#10;&#9;&#9;c-0.9-0.1-1.8-0.3-2.6-0.4c-1.8-0.3-3.6-0.6-5.3-0.9c-2.7-0.4-5.4-0.9-8.1-1.4s-5.5-0.9-8.2-1.4c-1.8-0.3-3.7-0.6-5.5-0.9&#10;&#9;&#9;c-3.7-0.6-7.4-1.2-11.1-1.9c-2.8-0.5-5.5-0.9-8.3-1.4c-3.7-0.6-7.4-1.2-11-1.9c-1.8-0.3-3.6-0.6-5.5-0.9c-1.8-0.3-3.6-0.6-5.4-0.9&#10;&#9;&#9;s-3.6-0.6-5.4-0.9c-0.9-0.2-1.8-0.3-2.7-0.5c-1.8-0.3-3.5-0.6-5.3-0.9c-1.7-0.3-3.5-0.6-5.2-0.9c-2.6-0.4-5.1-0.9-7.6-1.3&#10;&#9;&#9;c-4.2-0.7-8.2-1.4-12.2-2.1c-1.6-0.3-3.1-0.5-4.7-0.8c-1.5-0.3-3-0.5-4.5-0.8c-2.2-0.4-4.4-0.8-6.5-1.1c-1.4-0.2-2.8-0.5-4.1-0.7&#10;&#9;&#9;c-0.7-0.1-1.3-0.2-2-0.3c-6.6-1.1-12.5-2.1-17.5-3c-0.5-0.1-1-0.2-1.5-0.3c-1.4-0.2-2.8-0.5-4.1-0.7c-0.8-0.1-1.6-0.3-2.4-0.4&#10;&#9;&#9;c-6.1-1-9.6-1.6-9.6-1.6s-1.8-0.8-4.4-2.2c-0.2-0.1-0.4-0.2-0.7-0.3c-0.5-0.2-0.9-0.5-1.4-0.7c-1-0.5-2.1-1.1-3.1-1.7&#10;&#9;&#9;c-3.5-1.9-7.4-4.2-10.4-6.3l0,0c0.1,0.7,0.2,1.4,0.2,2.1c0,0,0,0,0,0c0.1,0.7,0.2,1.3,0.2,1.9c0,0,0,0,0,0&#10;&#9;&#9;c6.8,5.6,22.7,13.2,22.7,13.2S1289.4,384.3,1299.9,384.3z" style="opacity: 0.52; fill: rgb(87, 44, 38);"/>
	<g class="st17" style="opacity: 0.11;">
		<path class="st42" d="M1298.8,325.8c0-46.6-2.9-75.4-3.7-84.4c-0.3-3.3-4.2-6.6-9.5-10c1,16.1,2.9,55.5,2.9,95.6&#10;&#9;&#9;&#9;c0,39.1,6.3,55.3,2,62.5c3.5,0.6,5.8,1,6.6,1C1307.5,390.5,1298.8,372.4,1298.8,325.8z" style="fill: rgb(174, 141, 69);"/>
	</g>
	<g class="st19" style="opacity: 0.07;">
		<path class="st42" d="M1091.7,184.3c-16.8,7-57.9,18.1-61.6,21.8c-3,3-1.2,38.2,0.4,70.4c1.5,29.5,2.6,56.4,5.3,59.1&#10;&#9;&#9;&#9;c5.7,5.7,20.6,11.1,20.6,11.1s27.2,4.4,42,7.7c-1.5-10.3-3.3-34.8-4.4-56.5C1092.7,272.9,1091,212.3,1091.7,184.3z" style="fill: rgb(174, 141, 69);"/>
	</g>
	<g>
		<path class="st93" d="M1295,249.5c-0.2-2.8-0.4-5.1-0.6-6.7c-0.8-9-28.8-18.7-39.8-26.1c-11-7.4-34.2-24.7-52.8-35.4&#10;&#9;&#9;&#9;c-18.6-10.7-29.2-20.7-38.2-20.7s-73.8,21.3-73.8,21.3s-55.2,22-60.9,27.7c-0.7,0.7-1.1,3.2-1.4,7.1c13.4,2.9,52.7,11.5,72.7,14.3&#10;&#9;&#9;&#9;C1123.4,234.4,1266,252.6,1295,249.5z" style="fill: rgb(215, 206, 203);"/>
	</g>
	<g>
		<path class="st3" d="M1295.2,248.1c-0.2-2.8-0.4-5.1-0.6-6.7c-0.8-9-28.8-18.7-39.8-26.1c-11-7.4-34.2-24.7-52.8-35.4&#10;&#9;&#9;&#9;c-18.6-10.7-29.2-20.7-38.2-20.7s-73.8,21.3-73.8,21.3s-55.2,22-60.9,27.7c-0.7,0.7-1.1,3.2-1.4,7.1c13.4,2.9,52.7,11.5,72.7,14.3&#10;&#9;&#9;&#9;C1123.6,232.9,1266.2,251.1,1295.2,248.1z" style="fill: rgb(255, 255, 255);"/>
	</g>
	<g>
		<path class="st94" d="M1294.7,242c0-0.2,0-0.4-0.1-0.6c-0.8-9-28.8-18.7-39.8-26.1c-11-7.4-34.2-24.7-52.8-35.4&#10;&#9;&#9;&#9;c-18.6-10.7-29.2-20.7-38.2-20.7s-73.8,21.3-73.8,21.3s-55.2,22-60.9,27.7c-0.2,0.2-0.4,0.6-0.6,1.2c14.1,3.1,52.3,11.4,71.9,14.2&#10;&#9;&#9;&#9;C1123.5,226.9,1264.5,244.8,1294.7,242z" style="fill: rgb(235, 226, 223);"/>
	</g>
	<g class="st46" style="opacity: 0.32;">
		<path class="st47" d="M1202,179.9c-18.6-10.7-29.2-20.7-38.2-20.7c-9,0-73.8,21.3-73.8,21.3s-55.2,22-60.9,27.7&#10;&#9;&#9;&#9;c-0.2,0.2-0.4,0.6-0.6,1.2c14.1,3.1,52.3,11.4,71.9,14.2c6.3,0.9,21.7,2.9,41.1,5.3c14.3-11.7,40.6-31.4,69.3-43.6&#10;&#9;&#9;&#9;C1207.9,183.3,1204.9,181.5,1202,179.9z" style="fill: rgb(225, 213, 180);"/>
	</g>
	<g class="st48" style="opacity: 0.44;">
		<path class="st47" d="M1163.8,159.2c-9,0-73.8,21.3-73.8,21.3s-55.2,22-60.9,27.7c-0.2,0.2-0.4,0.6-0.6,1.2&#10;&#9;&#9;&#9;c12.4,2.7,43.6,9.5,64.2,13c16.3-13.9,47.7-35.7,96.7-50.2C1178.2,164.8,1170.5,159.2,1163.8,159.2z" style="fill: rgb(225, 213, 180);"/>
	</g>
	<path class="st3" d="M1255.1,238c0,0-14.7,4.6-21.8,4.4c-7.1-0.2-8.6,8.2-14.8,8.2s-12.5-9.9-17.4-11.7s-18.4-6.7-17.4-11.4&#10;&#9;&#9;s20.6-23.9,36.3-19.1S1263.9,221.3,1255.1,238z" style="fill: rgb(255, 255, 255);"/>
	<path class="st50" d="M1070.7,211c0,0,0.4,24.8,29.1,24.3c28.6-0.5,53.1-9.7,61.3-6.4c8.3,3.3,17,12.4,23.5,9.1s13.1-4.3,14.9-9.1&#10;&#9;&#9;s0.2-21.9-11.7-25.1c-11.9-3.2-41.8-0.1-50.6-3C1128.3,197.8,1069.1,203.4,1070.7,211z" style="opacity: 0.56; fill: rgb(255, 255, 255);"/>
	<path class="st51" d="M1115.4,200.8c0,0,27.8-25.2,49.9-20.4c22,4.8,31.5,11.1,43.8,13.7c12.2,2.6,46,13.1,38.1,21.1&#10;&#9;&#9;c-7.9,8-15.8,5.4-27.3,4.2c-11.5-1.2-29.5-0.2-49.5-2.7S1112.5,207.9,1115.4,200.8z" style="opacity: 0.45; fill: rgb(255, 255, 255);"/>
	<path class="st52" d="M1076.7,215.4c0,0-34-6.1-18.5-14.7c15.5-8.6,30.5-21.8,40.5-16.5s17.1-1.7,38.3-8.2s43.7-10.3,46.6,0&#10;&#9;&#9;c2.9,10.3,30.7,17.5,16.4,32.5s-81.6,27.6-92.7,22.8C1096.3,226.6,1082.4,216.7,1076.7,215.4z" style="opacity: 0.49; fill: rgb(255, 255, 255);"/>
	<path class="st53" d="M1035.8,210.4c-3,5.7-4.4,16,3,18.1c7.4,2.1,8.7-4.1,17.5-5.3c8.9-1.1,29.3,1.1,33.4-4&#10;&#9;&#9;c4.1-5.1-0.2-20-11.1-22.6C1067.8,194,1038.8,204.7,1035.8,210.4z" style="opacity: 0.67; fill: rgb(255, 255, 255);"/>
	<path class="st58" d="M1238.2,233.9c0,0,13,20.8,23.6,19.8c10.5-1,25.7-3,25.6-13s-29.5-17.1-36.5-10.1" style="opacity: 0.73; fill: rgb(255, 255, 255);"/>
	<path class="st60" d="M1136.3,225.4c0,0,2,17.1,17.5,14.7c19.3-3,14.2,7.2,15.8,8.9c1.6,1.7,16.9-5.9,11.9-17.2&#10;&#9;&#9;c0,0-4.5-13.9-10.3-15c-5.8-1.1-14.5,0-14.5,0" style="opacity: 0.59; fill: rgb(255, 255, 255);"/>
	<g>
		<path class="st95" d="M1090.9,168.9c0,0,1.6-15.6,17.3-19.7c0,0,16.1-7.3,23.7-4.4c7.6,2.8,17.3,9.2,16.1,24.1&#10;&#9;&#9;&#9;c-1.2,8.3-3.9,17.9-9.9,24.1c-4.3,4.4-10.9,4.4-16.7,4.6c-5.6,0.2-13.2,0.4-17.9-3.2C1096.2,188.6,1088.5,176.6,1090.9,168.9z" style="fill: rgb(199, 46, 46);"/>
		<g>
			<path class="st96" d="M1145.7,156c-1.4,6.4-3.7,12.9-7.6,17.5c-3.8,4.4-9.6,4.4-14.7,4.6c-5,0.2-11.6,0.4-15.7-3.2&#10;&#9;&#9;&#9;&#9;c-4.8-4.2-9.6-11.8-11.1-18.6c-2.3,2.6-3.6,5.4-4.5,7.7c-0.1,0.6-0.1,0.9-0.1,0.9c-2.4,7.6,5.2,19.7,12.6,25.5&#10;&#9;&#9;&#9;&#9;c4.7,3.7,12.3,3.4,17.9,3.2c5.8-0.2,12.4-0.2,16.7-4.6c3.5-3.7,5.9-8.6,7.6-13.8c0.5-2.1,0.9-4.3,1.2-6.3&#10;&#9;&#9;&#9;&#9;C1148.4,163.6,1147.5,159.4,1145.7,156z" style="fill: rgb(169, 38, 38);"/>
		</g>
		<path class="st97" d="M1131.4,155.4c0.8-0.9,1.5-1.9,2.6-2.2c2.2-0.6,4.2,1.8,4.7,4c1.1,4.8-1.3,10-5.2,13c-3.9,3-9.1,4-14,3.5&#10;&#9;&#9;&#9;c-4.7-0.5-23.5-5.9-13.9-13c3.8-2.8,8.8,0.4,13.1,0.4C1123.6,161.1,1128.3,159,1131.4,155.4z" style="opacity: 0.23; fill: rgb(255, 255, 255);"/>
		<path class="st57" d="M1107.7,160.5c-0.6,0.2-1.2,0.4-1.6,0.7c-1.7,1.2-1.2,3.3,1.3,3.6c3.5,0.3,7.4,0.6,10.9,0.2&#10;&#9;&#9;&#9;c0.2-2.6-2.4-4.8-5-5.1C1112.1,159.8,1109.6,160,1107.7,160.5z" style="opacity: 0.34; fill: rgb(255, 255, 255);"/>
		<path class="st98" d="M1119.1,152.9c-1.6-0.3-3.5-0.6-4.6,0.6c-1,1.1-0.9,2.9,0.1,4.1s2.4,1.7,3.8,2.1c2.4,0.5,7.6,1.1,9.3-1.3&#10;&#9;&#9;&#9;C1131,153.8,1121.6,153.5,1119.1,152.9z" style="fill: rgb(177, 41, 41);"/>
		<path class="st99" d="M1117.8,155.4c0,0,1,3.8,6.1,0.9c0,0,1.1-31.7,4.5-38.3c3.4-6.6,13-13.2,13-13.2s2.5-0.3,3.4-1.2&#10;&#9;&#9;&#9;s-2.5-5.3-3.6-4.2c-1.1,1.1-2,3.4-2,3.4s-10.8,9.1-13.8,15.3C1122.5,124.2,1117.8,155.4,1117.8,155.4z" style="fill: rgb(156, 36, 36);"/>
		<g>
			<path class="st100" d="M1128.4,116.1c-4.5,5.8-7.3,34.5-8,41.4c0.9,0,2-0.2,3.5-1c0,0,1.1-31.7,4.5-38.3c3.4-6.6,13-13.2,13-13.2&#10;&#9;&#9;&#9;&#9;s2.5-0.3,3.4-1.2c0.3-0.3,0.1-1-0.4-1.8C1139.9,103.8,1132.2,111.1,1128.4,116.1z" style="fill: rgb(112, 26, 26);"/>
		</g>
	</g>
	<g class="st101" style="opacity: 0.62;">
		<path class="st91" d="M1268.1,262.9C1268.1,262.9,1268.1,262.9,1268.1,262.9l5.7-2.5c0,0,0,0,0,0l1.1,6.2c0,0,0,0,0,0&#10;&#9;&#9;&#9;L1268.1,262.9z" style="fill: rgb(87, 44, 38);"/>
		<path class="st91" d="M1208.1,284.6C1208.1,284.6,1208.1,284.6,1208.1,284.6l5.7-2.5c0,0,0,0,0,0l1.1,6.2c0,0,0,0,0,0&#10;&#9;&#9;&#9;L1208.1,284.6z" style="fill: rgb(87, 44, 38);"/>
		<path class="st91" d="M1165.5,261.7C1165.5,261.7,1165.5,261.7,1165.5,261.7l5.7-2.5c0,0,0,0,0,0l1.1,6.2c0,0,0,0,0,0&#10;&#9;&#9;&#9;L1165.5,261.7z" style="fill: rgb(87, 44, 38);"/>
		<path class="st91" d="M1119.4,267.4C1119.4,267.4,1119.4,267.4,1119.4,267.4l5.7-2.5c0,0,0,0,0,0l1.1,6.2c0,0,0,0,0,0&#10;&#9;&#9;&#9;L1119.4,267.4z" style="fill: rgb(87, 44, 38);"/>
		<path class="st91" d="M1067.8,249C1067.8,249,1067.8,249,1067.8,249l5.7-2.5c0,0,0,0,0,0l1.1,6.2c0,0,0,0,0,0L1067.8,249z" style="fill: rgb(87, 44, 38);"/>
		<path class="st91" d="M1164.7,276.9C1164.7,276.9,1164.7,276.9,1164.7,276.9l5.7-2.5c0,0,0,0,0,0l1.1,6.2c0,0,0,0,0,0&#10;&#9;&#9;&#9;L1164.7,276.9z" style="fill: rgb(87, 44, 38);"/>
		<path class="st91" d="M1095.6,250.5C1095.6,250.4,1095.6,250.4,1095.6,250.5l5.7-2.5c0,0,0,0,0,0l1.1,6.2c0,0,0,0,0,0&#10;&#9;&#9;&#9;L1095.6,250.5z" style="fill: rgb(87, 44, 38);"/>
		<path class="st91" d="M1145.4,257.4C1145.4,257.4,1145.4,257.4,1145.4,257.4l6.3-0.3c0,0,0,0,0,0l-1.2,6.2c0,0,0,0,0,0&#10;&#9;&#9;&#9;L1145.4,257.4z" style="fill: rgb(87, 44, 38);"/>
		<path class="st91" d="M1262.9,282.1C1262.9,282.1,1262.9,282.1,1262.9,282.1l-2.7-3.9c0,0,0,0,0,0l4.5-1.8c0,0,0,0,0,0&#10;&#9;&#9;&#9;L1262.9,282.1z" style="fill: rgb(87, 44, 38);"/>
		<path d="M 1096.5999755859375 266.29998779296875 L 1096.5999755859375 266.3999938964844 L 1094.699951171875 263.70001220703125 L 1094.699951171875 263.70001220703125 L 1097.800048828125 262.3999938964844 L 1097.800048828125 262.3999938964844 Z" class="st91" style="fill: rgb(87, 44, 38);"/>
		<path d="M 1126.5999755859375 255 L 1126.5999755859375 255 L 1124.699951171875 252.3000030517578 L 1124.800048828125 252.3000030517578 L 1127.800048828125 251.10000610351562 L 1127.800048828125 251.10000610351562 Z" class="st91" style="fill: rgb(87, 44, 38);"/>
		<path d="M 1144.0999755859375 276.8999938964844 L 1144.0999755859375 276.79998779296875 L 1145 273.70001220703125 L 1145 273.70001220703125 L 1147.9000244140625 275.29998779296875 L 1147.9000244140625 275.29998779296875 Z" class="st91" style="fill: rgb(87, 44, 38);"/>
		<path d="M 1037.5 262.3999938964844 L 1037.5 262.3999938964844 L 1038.9000244140625 259.3999938964844 L 1038.9000244140625 259.3999938964844 L 1041.5 261.3999938964844 L 1041.5 261.3999938964844 Z" class="st91" style="fill: rgb(87, 44, 38);"/>
		<path d="M 1238.199951171875 292.20001220703125 L 1238.199951171875 292.20001220703125 L 1237.800048828125 288.8999938964844 L 1237.800048828125 288.8999938964844 L 1241.0999755859375 289.29998779296875 L 1241.0999755859375 289.29998779296875 Z" class="st91" style="fill: rgb(87, 44, 38);"/>
		<path d="M 1287.699951171875 272.79998779296875 L 1287.699951171875 272.79998779296875 L 1287.300048828125 269.5 L 1287.300048828125 269.5 L 1290.5999755859375 269.8999938964844 L 1290.5999755859375 269.8999938964844 Z" class="st91" style="fill: rgb(87, 44, 38);"/>
		<path d="M 1056.300048828125 261.1000061035156 L 1056.300048828125 261.1000061035156 L 1055.9000244140625 257.79998779296875 L 1055.9000244140625 257.79998779296875 L 1059.199951171875 258.20001220703125 L 1059.199951171875 258.20001220703125 Z" class="st91" style="fill: rgb(87, 44, 38);"/>
		<path class="st91" d="M1223.6,268C1223.6,268,1223.6,268,1223.6,268l-2.7-3.9c0,0,0,0,0,0l4.5-1.8c0,0,0,0,0,0L1223.6,268z" style="fill: rgb(87, 44, 38);"/>
		<path class="st91" d="M1076.6,265.2C1076.6,265.2,1076.6,265.2,1076.6,265.2l-2.7-3.9c0,0,0,0,0,0l4.5-1.8c0,0,0,0,0,0&#10;&#9;&#9;&#9;L1076.6,265.2z" style="fill: rgb(87, 44, 38);"/>
		<path class="st91" d="M1279.7,292.8C1279.7,292.8,1279.7,292.8,1279.7,292.8l-2.7-3.9c0,0,0,0,0,0l4.5-1.8c0,0,0,0,0,0&#10;&#9;&#9;&#9;L1279.7,292.8z" style="fill: rgb(87, 44, 38);"/>
		<path class="st91" d="M1236.4,275.9C1236.4,275.9,1236.4,275.9,1236.4,275.9l5.7-2.5c0,0,0,0,0,0l3.1,8.2c0,0,0,0,0,0&#10;&#9;&#9;&#9;L1236.4,275.9z" style="fill: rgb(87, 44, 38);"/>
		<path class="st91" d="M1191.7,262.3C1191.7,262.3,1191.7,262.3,1191.7,262.3l2.4,5.8c0,0,0,0,0,0l-8.2,3c0,0,0,0,0,0L1191.7,262.3&#10;&#9;&#9;&#9;z" style="fill: rgb(87, 44, 38);"/>
		<path class="st91" d="M1046.5,239.1C1046.5,239.1,1046.5,239.1,1046.5,239.1l2.4,5.8c0,0,0,0,0,0l-8.2,3c0,0,0,0,0,0L1046.5,239.1&#10;&#9;&#9;&#9;z" style="fill: rgb(87, 44, 38);"/>
	</g>
	<g class="st13" style="opacity: 0.13;">
		<path class="st91" d="M1281.1,260.4C1281.1,260.4,1281.1,260.4,1281.1,260.4l5.7-2.5c0,0,0,0,0,0l1.1,6.2c0,0,0,0,0,0&#10;&#9;&#9;&#9;L1281.1,260.4z" style="fill: rgb(87, 44, 38);"/>
		<path class="st91" d="M1221.1,282.1C1221.1,282.1,1221.1,282.1,1221.1,282.1l5.7-2.5c0,0,0,0,0,0l1.1,6.2c0,0,0,0,0,0&#10;&#9;&#9;&#9;L1221.1,282.1z" style="fill: rgb(87, 44, 38);"/>
		<path class="st91" d="M1178.5,259.2C1178.5,259.2,1178.5,259.2,1178.5,259.2l5.7-2.5c0,0,0,0,0,0l1.1,6.2c0,0,0,0,0,0&#10;&#9;&#9;&#9;L1178.5,259.2z" style="fill: rgb(87, 44, 38);"/>
		<path class="st91" d="M1132.4,264.9C1132.4,264.9,1132.4,264.9,1132.4,264.9l5.7-2.5c0,0,0,0,0,0l1.1,6.2c0,0,0,0,0,0&#10;&#9;&#9;&#9;L1132.4,264.9z" style="fill: rgb(87, 44, 38);"/>
		<path class="st91" d="M1080.8,246.5C1080.8,246.5,1080.8,246.5,1080.8,246.5l5.7-2.5c0,0,0,0,0,0l1.1,6.2c0,0,0,0,0,0&#10;&#9;&#9;&#9;L1080.8,246.5z" style="fill: rgb(87, 44, 38);"/>
		<path class="st91" d="M1177.7,274.4C1177.7,274.4,1177.7,274.4,1177.7,274.4l5.7-2.5c0,0,0,0,0,0l1.1,6.2c0,0,0,0,0,0&#10;&#9;&#9;&#9;L1177.7,274.4z" style="fill: rgb(87, 44, 38);"/>
		<path class="st91" d="M1108.6,248C1108.6,248,1108.6,247.9,1108.6,248l5.7-2.5c0,0,0,0,0,0l1.1,6.2c0,0,0,0,0,0L1108.6,248z" style="fill: rgb(87, 44, 38);"/>
		<path class="st91" d="M1158.4,254.9C1158.4,254.9,1158.4,254.9,1158.4,254.9l6.3-0.3c0,0,0,0,0,0l-1.2,6.2c0,0,0,0,0,0&#10;&#9;&#9;&#9;L1158.4,254.9z" style="fill: rgb(87, 44, 38);"/>
		<path class="st91" d="M1275.9,279.6C1275.9,279.6,1275.9,279.6,1275.9,279.6l-2.7-3.9c0,0,0,0,0,0l4.5-1.8c0,0,0,0,0,0&#10;&#9;&#9;&#9;L1275.9,279.6z" style="fill: rgb(87, 44, 38);"/>
		<path d="M 1109.5 263.8999938964844 L 1109.5 263.8999938964844 L 1107.699951171875 261.20001220703125 L 1107.699951171875 261.20001220703125 L 1110.699951171875 259.8999938964844 L 1110.699951171875 259.8999938964844 Z" class="st91" style="fill: rgb(87, 44, 38);"/>
		<path d="M 1139.5999755859375 252.5 L 1139.5999755859375 252.5 L 1137.699951171875 249.8000030517578 L 1137.699951171875 249.8000030517578 L 1140.800048828125 248.60000610351562 L 1140.800048828125 248.60000610351562 Z" class="st91" style="fill: rgb(87, 44, 38);"/>
		<path d="M 1157.0999755859375 274.3999938964844 L 1157.0999755859375 274.3999938964844 L 1157.9000244140625 271.20001220703125 L 1158 271.20001220703125 L 1160.9000244140625 272.79998779296875 L 1160.9000244140625 272.79998779296875 Z" class="st91" style="fill: rgb(87, 44, 38);"/>
		<path d="M 1050.5 259.8999938964844 L 1050.5 259.8999938964844 L 1051.9000244140625 256.8999938964844 L 1051.9000244140625 256.8999938964844 L 1054.5 258.8999938964844 L 1054.5 258.8999938964844 Z" class="st91" style="fill: rgb(87, 44, 38);"/>
		<path d="M 1251.199951171875 289.70001220703125 L 1251.199951171875 289.70001220703125 L 1250.800048828125 286.3999938964844 L 1250.800048828125 286.3999938964844 L 1254.0999755859375 286.79998779296875 L 1254.0999755859375 286.79998779296875 Z" class="st91" style="fill: rgb(87, 44, 38);"/>
		<path d="M 1069.300048828125 258.6000061035156 L 1069.300048828125 258.6000061035156 L 1068.9000244140625 255.3000030517578 L 1068.9000244140625 255.3000030517578 L 1072.199951171875 255.6999969482422 L 1072.199951171875 255.6999969482422 Z" class="st91" style="fill: rgb(87, 44, 38);"/>
		<path class="st91" d="M1236.6,265.5C1236.6,265.5,1236.6,265.5,1236.6,265.5l-2.7-3.9c0,0,0,0,0,0l4.5-1.8c0,0,0,0,0,0&#10;&#9;&#9;&#9;L1236.6,265.5z" style="fill: rgb(87, 44, 38);"/>
		<path class="st91" d="M1089.6,262.7C1089.6,262.7,1089.6,262.7,1089.6,262.7l-2.7-3.9c0,0,0,0,0,0l4.5-1.8c0,0,0,0,0,0&#10;&#9;&#9;&#9;L1089.6,262.7z" style="fill: rgb(87, 44, 38);"/>
		<path class="st91" d="M1292.7,290.3C1292.7,290.3,1292.7,290.3,1292.7,290.3l-2.7-3.9c0,0,0,0,0,0l4.5-1.8c0,0,0,0,0,0&#10;&#9;&#9;&#9;L1292.7,290.3z" style="fill: rgb(87, 44, 38);"/>
		<path class="st91" d="M1249.4,273.4C1249.4,273.4,1249.4,273.4,1249.4,273.4l5.7-2.5c0,0,0,0,0,0l3.1,8.2c0,0,0,0,0,0&#10;&#9;&#9;&#9;L1249.4,273.4z" style="fill: rgb(87, 44, 38);"/>
		<path class="st91" d="M1204.7,259.8C1204.7,259.8,1204.7,259.8,1204.7,259.8l2.4,5.8c0,0,0,0,0,0l-8.2,3c0,0,0,0,0,0L1204.7,259.8&#10;&#9;&#9;&#9;z" style="fill: rgb(87, 44, 38);"/>
		<path class="st91" d="M1059.4,236.7C1059.5,236.6,1059.5,236.6,1059.4,236.7l2.4,5.8c0,0,0,0,0,0l-8.2,3c0,0,0,0,0,0L1059.4,236.7&#10;&#9;&#9;&#9;z" style="fill: rgb(87, 44, 38);"/>
	</g>
	<g class="st102" style="opacity: 0.76;">
		<g class="st81" style="opacity: 0.19;">
			<path class="st3" d="M1040.3,284.2c0,0,2.2-4.5,8.2-4.7C1048.5,279.5,1044.7,283.1,1040.3,284.2z" style="fill: rgb(255, 255, 255);"/>
			<path class="st3" d="M1067.3,286.5c0,0,2.2-4.5,8.2-4.7C1075.5,281.8,1071.7,285.5,1067.3,286.5z" style="fill: rgb(255, 255, 255);"/>
			<path class="st3" d="M1079.8,299.8c0,0,2.2-4.5,8.2-4.7C1088,295.2,1084.1,298.8,1079.8,299.8z" style="fill: rgb(255, 255, 255);"/>
			<path class="st3" d="M1065.4,299.8c0,0,2.2-4.5,8.2-4.7C1073.7,295.2,1069.8,298.8,1065.4,299.8z" style="fill: rgb(255, 255, 255);"/>
			<path class="st3" d="M1090.8,274.4c0,0,2.2-4.5,8.2-4.7C1099,269.7,1095.2,273.3,1090.8,274.4z" style="fill: rgb(255, 255, 255);"/>
			<path class="st3" d="M1080.2,287.6c0,0,3.2-6.6,12-6.8C1092.2,280.8,1086.6,286.1,1080.2,287.6z" style="fill: rgb(255, 255, 255);"/>
			<path class="st3" d="M1094,295.2c0,0,3.2-6.6,12-6.8C1106,288.4,1100.4,293.7,1094,295.2z" style="fill: rgb(255, 255, 255);"/>
			<path class="st3" d="M1048.5,284.2c0,0,3.2-6.6,12-6.8C1060.5,277.3,1054.9,282.6,1048.5,284.2z" style="fill: rgb(255, 255, 255);"/>
			<path class="st3" d="M1051.7,295.2c0,0,3.2-6.6,12-6.8C1063.7,288.4,1058.1,293.7,1051.7,295.2z" style="fill: rgb(255, 255, 255);"/>
			<path class="st3" d="M1115,285.4c0,0,3.2-6.6,12-6.8C1126.9,278.6,1121.3,283.9,1115,285.4z" style="fill: rgb(255, 255, 255);"/>
			<path class="st3" d="M1112.7,294.9c0,0,2.2-4.5,8.2-4.7C1121,290.2,1117.1,293.9,1112.7,294.9z" style="fill: rgb(255, 255, 255);"/>
			<path class="st3" d="M1139.8,297.3c0,0,2.2-4.5,8.2-4.7C1148,292.6,1144.1,296.2,1139.8,297.3z" style="fill: rgb(255, 255, 255);"/>
			<path class="st3" d="M1152.2,310.6c0,0,2.2-4.5,8.2-4.7C1160.4,305.9,1156.5,309.6,1152.2,310.6z" style="fill: rgb(255, 255, 255);"/>
			<path class="st3" d="M1137.9,310.6c0,0,2.2-4.5,8.2-4.7C1146.1,305.9,1142.2,309.6,1137.9,310.6z" style="fill: rgb(255, 255, 255);"/>
			<path class="st3" d="M1151.6,287.5c0,0,2.2-4.5,8.2-4.7C1159.8,282.8,1156,286.4,1151.6,287.5z" style="fill: rgb(255, 255, 255);"/>
			<path class="st3" d="M1137.9,286.2c0,0,3.2-6.6,12-6.8C1149.8,279.4,1144.2,284.7,1137.9,286.2z" style="fill: rgb(255, 255, 255);"/>
			<path class="st3" d="M1152.7,298.3c0,0,3.2-6.6,12-6.8C1164.6,291.5,1159,296.8,1152.7,298.3z" style="fill: rgb(255, 255, 255);"/>
			<path class="st3" d="M1166.5,305.9c0,0,3.2-6.6,12-6.8C1178.4,299.1,1172.8,304.4,1166.5,305.9z" style="fill: rgb(255, 255, 255);"/>
			<path class="st3" d="M1162,318.3c0,0,3.2-6.6,12-6.8C1173.9,311.5,1168.3,316.8,1162,318.3z" style="fill: rgb(255, 255, 255);"/>
			<path class="st3" d="M1121,294.9c0,0,3.2-6.6,12-6.8C1132.9,288.1,1127.3,293.4,1121,294.9z" style="fill: rgb(255, 255, 255);"/>
			<path class="st3" d="M1124.2,305.9c0,0,3.2-6.6,12-6.8C1136.1,299.1,1130.5,304.4,1124.2,305.9z" style="fill: rgb(255, 255, 255);"/>
			<path class="st3" d="M1109,311.7c0,0,3.2-6.6,12-6.8C1121,304.9,1115.3,310.2,1109,311.7z" style="fill: rgb(255, 255, 255);"/>
			<path class="st3" d="M1178.4,317.7c0,0,3.2-6.6,12-6.8C1190.4,310.9,1184.8,316.2,1178.4,317.7z" style="fill: rgb(255, 255, 255);"/>
			<path class="st3" d="M1176.6,294.9c0,0,3.2-6.6,12-6.8C1188.6,288.1,1183,293.4,1176.6,294.9z" style="fill: rgb(255, 255, 255);"/>
		</g>
		<g class="st81" style="opacity: 0.19;">
			<path class="st3" d="M1194.6,304.3c0,0,2.2-4.5,8.2-4.7C1202.8,299.6,1199,303.2,1194.6,304.3z" style="fill: rgb(255, 255, 255);"/>
			<path class="st3" d="M1221.6,306.6c0,0,2.2-4.5,8.2-4.7C1229.8,301.9,1226,305.6,1221.6,306.6z" style="fill: rgb(255, 255, 255);"/>
			<path class="st3" d="M1234,320c0,0,2.2-4.5,8.2-4.7C1242.2,315.3,1238.4,318.9,1234,320z" style="fill: rgb(255, 255, 255);"/>
			<path class="st3" d="M1219.7,320c0,0,2.2-4.5,8.2-4.7C1227.9,315.3,1224.1,318.9,1219.7,320z" style="fill: rgb(255, 255, 255);"/>
			<path class="st3" d="M1234.5,307.7c0,0,3.2-6.6,12-6.8C1246.5,300.9,1240.9,306.2,1234.5,307.7z" style="fill: rgb(255, 255, 255);"/>
			<path class="st3" d="M1248.3,315.3c0,0,3.2-6.6,12-6.8C1260.3,308.5,1254.7,313.8,1248.3,315.3z" style="fill: rgb(255, 255, 255);"/>
			<path class="st3" d="M1243.8,327.7c0,0,3.2-6.6,12-6.8C1255.8,320.9,1250.2,326.2,1243.8,327.7z" style="fill: rgb(255, 255, 255);"/>
			<path class="st3" d="M1202.8,304.3c0,0,3.2-6.6,12-6.8C1214.8,297.5,1209.2,302.8,1202.8,304.3z" style="fill: rgb(255, 255, 255);"/>
			<path class="st3" d="M1206,315.3c0,0,3.2-6.6,12-6.8C1218,308.5,1212.4,313.8,1206,315.3z" style="fill: rgb(255, 255, 255);"/>
			<path class="st3" d="M1190.8,321c0,0,3.2-6.6,12-6.8C1202.8,314.2,1197.2,319.5,1190.8,321z" style="fill: rgb(255, 255, 255);"/>
			<path class="st3" d="M1269.3,305.5c0,0,3.2-6.6,12-6.8C1281.2,298.7,1275.6,304,1269.3,305.5z" style="fill: rgb(255, 255, 255);"/>
			<path class="st3" d="M1267,315c0,0,2.2-4.5,8.2-4.7C1275.2,310.4,1271.4,314,1267,315z" style="fill: rgb(255, 255, 255);"/>
			<path class="st3" d="M1294,317.4c0,0,2.2-4.5,8.2-4.7C1302.2,312.7,1298.4,316.3,1294,317.4z" style="fill: rgb(255, 255, 255);"/>
			<path class="st3" d="M1275.2,315c0,0,3.2-6.6,12-6.8C1287.2,308.2,1281.6,313.5,1275.2,315z" style="fill: rgb(255, 255, 255);"/>
			<path class="st3" d="M1278.5,326.1c0,0,3.2-6.6,12-6.8C1290.4,319.2,1284.8,324.5,1278.5,326.1z" style="fill: rgb(255, 255, 255);"/>
		</g>
	</g>
	<path class="st3" d="M1090.7,208.9c0,0,13.7-19,20.4-18c6.7,1,6.5,3.3,6.5,3.3c1.2-3.4,13.7-11.6,15.3-4.2c1-1.4,13.4-14.3,20-5.1&#10;&#9;&#9;c12.3,4.1,9,3.5,6.5,8.1c-2.5,4.7-23.4,13.3-35.4,15.7c-12,2.4-23,2.2-23,2.2L1090.7,208.9z" style="fill: rgb(255, 255, 255);"/>
	<path class="st47" d="M1100.8,205c0,0,11.8,4.8,16.4-5.2C1117.2,199.8,1118.4,220.5,1100.8,205z" style="fill: rgb(225, 213, 180);"/>
	<path class="st47" d="M1121.5,206.5c0,0,14.8-0.2,15.6-11.3C1137.1,195.2,1143.5,214.7,1121.5,206.5z" style="fill: rgb(225, 213, 180);"/>
	<path class="st47" d="M1144.3,196.6c0,0,6.3-0.2,11.2-4.4c3-2.5,5.4-7.5,5.7-11.6C1161.3,180.6,1166.3,204.8,1144.3,196.6z" style="fill: rgb(225, 213, 180);"/>
	<path class="st103" d="M1105.3,222.7c1.7-1,34.9,4.5,45.5,3.3c10.5-1.2,4.1-3.7,12.7-8.5c8.6-4.8,32.5-6.3,32.5-6.3&#10;&#9;&#9;s-23.5,6.6-28.3,9.3c-4.8,2.7,4.7,8.5-13.9,9.1C1135.2,230.3,1105.3,222.7,1105.3,222.7z" style="opacity: 0.57; fill: rgb(225, 213, 180);"/>
	<g class="st104" style="opacity: 0.6;">
		<path class="st96" d="M1085,318.7c-0.9,0.6-1.9,1.2-2.5,2.1s-0.5,2.4,0.4,3c0.5,0.3,1.1,0.4,1.7,0.4c3.7-0.1,7.2-3.1,8-6.7&#10;&#9;&#9;&#9;c-1.4-1.1-3.4-1.4-5-0.9c-1.7,0.5-3.1,1.9-3.6,3.6" style="fill: rgb(169, 38, 38);"/>
		<path class="st96" d="M1098.8,325.9c-0.7,0.4-1.3,0.9-1.7,1.6s-0.3,1.7,0.4,2.1c0.5,0.3,1,0,1.6,0.1c0.5,0.1,0.8,0.4,1.3,0.5&#10;&#9;&#9;&#9;c3.7,1,6.9-2.6,7.9-6c0.1-0.4,0.2-0.9,0-1.3c-0.3-0.4-0.8-0.6-1.3-0.6c-2.8-0.1-5.7,1.4-7.2,3.8" style="fill: rgb(169, 38, 38);"/>
		<path class="st96" d="M1125.7,321.8c-1,0.6-2,1.2-2.8,2.1c-0.8,0.9-1.2,2.1-0.9,3.2c0.7,2.6,3.5,2,5.5,1.5&#10;&#9;&#9;&#9;c2.1-0.5,6.1-0.3,6.8-2.8c0.6-2.1-1.5-4.5-3.7-4.2c1-0.3,0.8-1.9-0.1-2.4c-0.9-0.4-2,0-2.9,0.5c-2,1.3-3.6,3.2-4.3,5.5" style="fill: rgb(169, 38, 38);"/>
		<path class="st96" d="M1136.3,335.7c-1.6,1.9,0.7,3.6,2.9,4.2c2.2,0.6,5,0.9,6.5-0.9c1.6-1.9,0.2-5.2-1.8-6.2&#10;&#9;&#9;&#9;c-2.1-1.1-5.6,1.2-7.1,2.5C1136.5,335.4,1136.4,335.6,1136.3,335.7z" style="fill: rgb(169, 38, 38);"/>
		<path class="st96" d="M1164.7,324.1c0.1,0,0.3-0.1,0.4-0.1c0.8,0,1.4,0.8,1.5,1.6c0.3,2.5-1.1,6.5-3.2,8c-0.9,0.7-2.2,0.9-3.2,0.6&#10;&#9;&#9;&#9;c-0.6-0.2-0.9-0.5-1.4-0.8c-0.5-0.3-1-0.6-1.5-0.9c-1.1-0.6-1.6-0.5-1.2-2.1c0.3-1.1,1.5-2.5,2.3-3.2c0.4-0.4,1-0.6,1.5-0.9&#10;&#9;&#9;&#9;c1.3-0.7,2.6-1.4,4-2.1C1164.2,324.3,1164.5,324.1,1164.7,324.1z" style="fill: rgb(169, 38, 38);"/>
		<path class="st96" d="M1175.8,346.9c1.8-0.5,3.7-1,5-2.3c0.8-0.8,1.3-1.9,1.6-3.1c1-3.7-2.2-5.7-5.5-4.1c-2.2,1.1-4.1,4.9-5.2,6.9&#10;&#9;&#9;&#9;c1,0.2,1.8,0.5,2.5,1.2C1174.8,346.3,1174.3,347.3,1175.8,346.9z" style="fill: rgb(169, 38, 38);"/>
		<path class="st96" d="M1195.4,333c-0.4,0.7-0.8,1.3-0.9,2.1s0,1.6,0.5,2.1c0.8,0.7,2,0.6,3,0.4c0.9-0.2,1.8-0.3,2.6-0.8&#10;&#9;&#9;&#9;c0.9-0.6,1.5-1.6,2.1-2.6c0.6-1,1.1-2.1,0.7-3.1c-0.4-1.1-1.7-1.5-2.8-1.6c-1.7-0.2-3.5,0.2-4.9,1.2c-1.3,1.1-2,3-1.4,4.6" style="fill: rgb(169, 38, 38);"/>
		<path class="st96" d="M1205.7,344.7c-0.8,0.5-1.7,1-2.4,1.7s-1.1,1.7-0.8,2.7c0.4,1.6,2.4,2.2,3.9,1.8c1.5-0.4,2.7-1.6,4-2.7&#10;&#9;&#9;&#9;c0.9-0.8,2-1.9,1.7-3.1c-0.3-1-1.5-1.4-2.6-1.4c-1.6,0.1-3.2,1-4.1,2.5" style="fill: rgb(169, 38, 38);"/>
		<path class="st96" d="M1226.5,336.9c-0.2,1-1,1.7-1.6,2.5s-0.9,2.1-0.1,2.7c0.8,0.6,2,0,2.9-0.5c1.8-0.9,4.1-1.1,5.6-2.6&#10;&#9;&#9;&#9;c0.7-0.7,1.2-2,0.6-2.8c-0.5-0.7-1.5-0.9-2.3-1.1c-1.5-0.2-3.2-0.3-4.6,0.3c-1.4,0.6-2.6,2.2-2.1,3.7" style="fill: rgb(169, 38, 38);"/>
		<path class="st96" d="M1234.6,348.3c-4.2,3.4,0,10,4.8,9.5c1.6-0.2,2.9-1.3,3.7-2.6c0.7-1.1,1.2-2.6,0.7-3.9&#10;&#9;&#9;&#9;c-0.4-0.9-1.1-1.5-1.9-2c-1.1-0.8-2.2-1.4-3.5-1.7C1237.1,347.3,1235.7,347.5,1234.6,348.3z" style="fill: rgb(169, 38, 38);"/>
		<path class="st96" d="M1252.4,337.7c-1.2,0.3-2.2,1.2-2.5,2.3c-0.4,1.1,0,2.5,0.9,3.2c1,0.8,2.6,0.8,3.8,0.2s2.1-1.6,3-2.6&#10;&#9;&#9;&#9;c0.6-0.7,1.2-1.8,0.6-2.5c-0.3-0.3-0.7-0.4-1.1-0.5c-1.3-0.2-2.6-0.1-3.8,0.4c0.3,0,0.7-0.1,1-0.1" style="fill: rgb(169, 38, 38);"/>
		<path class="st96" d="M1259.5,354.6c-0.3,1.1-0.3,2.6,0.7,3.2c0.8,0.5,1.9,0.2,2.9-0.2c1.1-0.4,2.3-0.9,3.2-1.7s1.6-2.1,1.3-3.3&#10;&#9;&#9;&#9;c-0.2-1.1-1.3-2-2.4-2.4C1262,349.2,1260.3,351.7,1259.5,354.6z" style="fill: rgb(169, 38, 38);"/>
		<path class="st96" d="M1274.3,343.9c-0.3,1.4,0.1,2.9,1.1,4c0.6,0.6,1.3,1.1,2.2,1c1.1-0.1,2-1,2.6-1.8c1.6-2.1,3.1-4.2,4.4-6.5&#10;&#9;&#9;&#9;c0.6-1.1-5.2-1.2-5.8-1C1276.9,340.2,1274.8,341.8,1274.3,343.9z" style="fill: rgb(169, 38, 38);"/>
		<path class="st96" d="M1285.9,359.3c-0.7,0.4-1.5,0.8-2,1.5s-0.7,1.7-0.2,2.4c0.4,0.6,1.3,0.8,2,0.9c0.9,0.1,1.8,0.1,2.7,0&#10;&#9;&#9;&#9;c1-0.1,2.2-0.3,2.7-1.2c0.6-0.8,0.4-2-0.2-2.8c-0.6-0.8-1.6-1.2-2.6-1.3s-2,0-3,0.1" style="fill: rgb(169, 38, 38);"/>
		<path class="st96" d="M1042.5,304.8c-0.7,0.7-1.5,1.4-1.9,2.3c-0.4,0.9-0.4,2,0.2,2.8c0.9,1.1,3.6,1,4.9,1.1&#10;&#9;&#9;&#9;c2,0.1,4.3-0.5,5.1-2.4c0.6-1.6-0.4-3.5-2-4.3c-1.6-0.7-3.4-0.5-5,0.3c-1.5,0.8-2.8,1.9-4.1,3.1&#10;&#9;&#9;&#9;C1041.5,306.1,1040.7,306.4,1042.5,304.8z" style="fill: rgb(169, 38, 38);"/>
		<path class="st96" d="M1068.8,311.3c-1.3,0.4-2.7,0.8-3.6,1.8c-0.8,1.1-0.7,3,0.6,3.4c0.5,0.2,1.1,0.1,1.6,0.1&#10;&#9;&#9;&#9;c1.4-0.1,2.7,0,4.1-0.2s2.7-1,3.1-2.3c0.4-1.4-0.4-3-1.7-3.6c-1.3-0.6-2.9-0.4-4.2,0.3c-1.2,0.7-2.2,1.9-2.8,3.2" style="fill: rgb(169, 38, 38);"/>
		<path class="st96" d="M1056.8,326.3c0.8-2.4,3-4.2,5.4-4.6c0.8-0.1,1.7-0.1,2.5,0.2c0.9,0.3,1.6,1,2,1.9c2.9,4.3-7.8,6.4-9.9,3&#10;&#9;&#9;&#9;c-0.8-1.2,1.5-3.1,2.7-2.9C1058.5,324.8,1055.9,325.2,1056.8,326.3z" style="fill: rgb(169, 38, 38);"/>
	</g>
	<g class="st25" style="opacity: 0.08;">
		<path class="st91" d="M1097.8,320c-0.9,0.6-1.9,1.2-2.5,2.1s-0.5,2.4,0.4,3c0.5,0.3,1.1,0.4,1.7,0.4c3.7-0.1,7.2-3.1,8-6.7&#10;&#9;&#9;&#9;c-1.4-1.1-3.4-1.4-5-0.9c-1.7,0.5-3.1,1.9-3.6,3.6" style="fill: rgb(87, 44, 38);"/>
		<path class="st91" d="M1111.6,327.2c-0.7,0.4-1.3,0.9-1.7,1.6s-0.3,1.7,0.4,2.1c0.5,0.3,1,0,1.6,0.1c0.5,0.1,0.8,0.4,1.3,0.5&#10;&#9;&#9;&#9;c3.7,1,6.9-2.6,7.9-6c0.1-0.4,0.2-0.9,0-1.3c-0.3-0.4-0.8-0.6-1.3-0.6c-2.8-0.1-5.7,1.4-7.2,3.8" style="fill: rgb(87, 44, 38);"/>
		<path class="st91" d="M1138.5,323.1c-1,0.6-2,1.2-2.8,2.1c-0.8,0.9-1.2,2.1-0.9,3.2c0.7,2.6,3.5,2,5.5,1.5&#10;&#9;&#9;&#9;c2.1-0.5,6.1-0.3,6.8-2.8c0.6-2.1-1.5-4.5-3.7-4.2c1-0.3,0.8-1.9-0.1-2.4c-0.9-0.4-2,0-2.9,0.5c-2,1.3-3.6,3.2-4.3,5.5" style="fill: rgb(87, 44, 38);"/>
		<path class="st91" d="M1149,337c-1.6,1.9,0.7,3.6,2.9,4.2c2.2,0.6,5,0.9,6.5-0.9c1.6-1.9,0.2-5.2-1.8-6.2&#10;&#9;&#9;&#9;c-2.1-1.1-5.6,1.2-7.1,2.5C1149.3,336.7,1149.1,336.9,1149,337z" style="fill: rgb(87, 44, 38);"/>
		<path class="st91" d="M1177.5,325.4c0.1,0,0.3-0.1,0.4-0.1c0.8,0,1.4,0.8,1.5,1.6c0.3,2.5-1.1,6.5-3.2,8c-0.9,0.7-2.2,0.9-3.2,0.6&#10;&#9;&#9;&#9;c-0.6-0.2-0.9-0.5-1.4-0.8c-0.5-0.3-1-0.6-1.5-0.9c-1.1-0.6-1.6-0.5-1.2-2.1c0.3-1.1,1.5-2.5,2.3-3.2c0.4-0.4,1-0.6,1.5-0.9&#10;&#9;&#9;&#9;c1.3-0.7,2.6-1.4,4-2.1C1177,325.6,1177.2,325.5,1177.5,325.4z" style="fill: rgb(87, 44, 38);"/>
		<path class="st91" d="M1188.6,348.2c1.8-0.5,3.7-1,5-2.3c0.8-0.8,1.3-1.9,1.6-3.1c1-3.7-2.2-5.7-5.5-4.1c-2.2,1.1-4.1,4.9-5.2,6.9&#10;&#9;&#9;&#9;c1,0.2,1.8,0.5,2.5,1.2C1187.6,347.6,1187,348.6,1188.6,348.2z" style="fill: rgb(87, 44, 38);"/>
		<path class="st91" d="M1208.2,334.3c-0.4,0.7-0.8,1.3-0.9,2.1s0,1.6,0.5,2.1c0.8,0.7,2,0.6,3,0.4c0.9-0.2,1.8-0.3,2.6-0.8&#10;&#9;&#9;&#9;c0.9-0.6,1.5-1.6,2.1-2.6c0.6-1,1.1-2.1,0.7-3.1c-0.4-1.1-1.7-1.5-2.8-1.6c-1.7-0.2-3.5,0.2-4.9,1.2c-1.3,1.1-2,3-1.4,4.6" style="fill: rgb(87, 44, 38);"/>
		<path class="st91" d="M1218.5,346c-0.8,0.5-1.7,1-2.4,1.7c-0.6,0.7-1.1,1.7-0.8,2.7c0.4,1.6,2.4,2.2,3.9,1.8&#10;&#9;&#9;&#9;c1.5-0.4,2.7-1.6,4-2.7c0.9-0.8,2-1.9,1.7-3.1c-0.3-1-1.5-1.4-2.6-1.4c-1.6,0.1-3.2,1-4.1,2.5" style="fill: rgb(87, 44, 38);"/>
		<path class="st91" d="M1239.3,338.2c-0.2,1-1,1.7-1.6,2.5c-0.6,0.8-0.9,2.1-0.1,2.7c0.8,0.6,2,0,2.9-0.5c1.8-0.9,4.1-1.1,5.6-2.6&#10;&#9;&#9;&#9;c0.7-0.7,1.2-2,0.6-2.8c-0.5-0.7-1.5-0.9-2.3-1.1c-1.5-0.2-3.2-0.3-4.6,0.3c-1.4,0.6-2.6,2.2-2.1,3.7" style="fill: rgb(87, 44, 38);"/>
		<path class="st91" d="M1247.4,349.7c-4.2,3.4,0,10,4.8,9.5c1.6-0.2,2.9-1.3,3.7-2.6c0.7-1.1,1.2-2.6,0.7-3.9&#10;&#9;&#9;&#9;c-0.4-0.9-1.1-1.5-1.9-2c-1.1-0.8-2.2-1.4-3.5-1.7C1249.9,348.6,1248.4,348.8,1247.4,349.7z" style="fill: rgb(87, 44, 38);"/>
		<path class="st91" d="M1265.2,339c-1.2,0.3-2.2,1.2-2.5,2.3c-0.4,1.1,0,2.5,0.9,3.2c1,0.8,2.6,0.8,3.8,0.2c1.2-0.6,2.1-1.6,3-2.6&#10;&#9;&#9;&#9;c0.6-0.7,1.2-1.8,0.6-2.5c-0.3-0.3-0.7-0.4-1.1-0.5c-1.3-0.2-2.6-0.1-3.8,0.4c0.3,0,0.7-0.1,1-0.1" style="fill: rgb(87, 44, 38);"/>
		<path class="st91" d="M1272.2,356c-0.3,1.1-0.3,2.6,0.7,3.2c0.8,0.5,1.9,0.2,2.9-0.2c1.1-0.4,2.3-0.9,3.2-1.7&#10;&#9;&#9;&#9;c0.9-0.8,1.6-2.1,1.3-3.3c-0.2-1.1-1.3-2-2.4-2.4C1274.7,350.5,1273.1,353,1272.2,356z" style="fill: rgb(87, 44, 38);"/>
		<path class="st91" d="M1287.1,345.2c-0.3,1.4,0.1,2.9,1.1,4c0.6,0.6,1.3,1.1,2.2,1c1.1-0.1,2-1,2.6-1.8c1.6-2.1,3.1-4.2,4.4-6.5&#10;&#9;&#9;&#9;c0.6-1.1-5.2-1.2-5.8-1C1289.7,341.5,1287.5,343.1,1287.1,345.2z" style="fill: rgb(87, 44, 38);"/>
		<path class="st91" d="M1055.3,306.1c-0.7,0.7-1.5,1.4-1.9,2.3c-0.4,0.9-0.4,2,0.2,2.8c0.9,1.1,3.6,1,4.9,1.1&#10;&#9;&#9;&#9;c2,0.1,4.3-0.5,5.1-2.4c0.6-1.6-0.4-3.5-2-4.3s-3.4-0.5-5,0.3c-1.5,0.8-2.8,1.9-4.1,3.1C1054.3,307.4,1053.5,307.7,1055.3,306.1z" style="fill: rgb(87, 44, 38);"/>
		<path class="st91" d="M1081.6,312.6c-1.3,0.4-2.7,0.8-3.6,1.8s-0.7,3,0.6,3.4c0.5,0.2,1.1,0.1,1.6,0.1c1.4-0.1,2.7,0,4.1-0.2&#10;&#9;&#9;&#9;s2.7-1,3.1-2.3c0.4-1.4-0.4-3-1.7-3.6c-1.3-0.6-2.9-0.4-4.2,0.3c-1.2,0.7-2.2,1.9-2.8,3.2" style="fill: rgb(87, 44, 38);"/>
		<path class="st91" d="M1069.6,327.6c0.8-2.4,3-4.2,5.4-4.6c0.8-0.1,1.7-0.1,2.5,0.2c0.9,0.3,1.6,1,2,1.9c2.9,4.3-7.8,6.4-9.9,3&#10;&#9;&#9;&#9;c-0.8-1.2,1.5-3.1,2.7-2.9C1071.2,326.1,1068.7,326.5,1069.6,327.6z" style="fill: rgb(87, 44, 38);"/>
	</g>
</g></g></svg>